<svg aria-hidden="true" style="position: absolute; width: 0; height: 0; overflow: hidden;" version="1.1" xmlns="http://www.w3.org/2000/svg" xmlns:xlink="http://www.w3.org/1999/xlink">
<defs>
<symbol id="icon-Property-1Bulb-off" viewBox="0 0 32 32">
<path fill="#b3a0ff" style="fill: var(--color1, #b3a0ff)" d="M32 16c0 8.837-7.163 16-16 16s-16-7.163-16-16c0-8.837 7.163-16 16-16s16 7.163 16 16z"></path>
<path fill="#fff" style="fill: var(--color2, #fff)" d="M22.302 14.836c-0.105-1.572-0.774-3.051-1.882-4.158s-2.577-1.768-4.133-1.858h-0.562c-1.556 0.089-3.025 0.75-4.133 1.858s-1.777 2.587-1.882 4.158c0 0.122 0 0.249 0 0.372 0.002 1.134 0.3 2.247 0.865 3.227 0.32 0.501 0.683 0.972 1.085 1.408 0.476 0.516 0.866 1.106 1.155 1.749 0.182 0.437 0.303 0.874 0.432 1.242 0.086 0.247 0.245 0.462 0.457 0.614s0.464 0.234 0.724 0.234h3.182c0.26-0.001 0.513-0.083 0.725-0.235s0.373-0.366 0.46-0.613c0.134-0.38 0.255-0.804 0.432-1.242 0.29-0.642 0.68-1.232 1.154-1.749 0.402-0.436 0.765-0.907 1.085-1.408 0.564-0.98 0.863-2.093 0.865-3.227-0.022-0.118-0.022-0.245-0.030-0.372z"></path>
<path fill="#fff" style="fill: var(--color2, #fff)" d="M15.989 6.66c0.172 0 0.337-0.069 0.459-0.192s0.19-0.29 0.19-0.464v-1.793c0-0.174-0.068-0.341-0.19-0.464s-0.287-0.192-0.459-0.192-0.337 0.069-0.459 0.192c-0.122 0.123-0.19 0.29-0.19 0.464v1.793c0 0.174 0.068 0.341 0.19 0.464s0.287 0.192 0.459 0.192z"></path>
<path fill="#fff" style="fill: var(--color2, #fff)" d="M9.166 9.043c0.122 0.122 0.287 0.19 0.458 0.19s0.336-0.068 0.458-0.19c0.061-0.061 0.109-0.133 0.142-0.212s0.050-0.165 0.050-0.251c0-0.086-0.017-0.172-0.050-0.251s-0.081-0.152-0.142-0.212l-1.526-1.548c-0.060-0.061-0.132-0.11-0.211-0.144s-0.164-0.050-0.249-0.050-0.17 0.017-0.249 0.050c-0.079 0.033-0.151 0.082-0.211 0.144-0.12 0.124-0.188 0.29-0.188 0.463s0.068 0.34 0.188 0.463l1.531 1.548z"></path>
<path fill="#fff" style="fill: var(--color2, #fff)" d="M6.909 14.298h-1.993c-0.172 0-0.337 0.069-0.459 0.192s-0.19 0.29-0.19 0.464 0.068 0.341 0.19 0.464c0.122 0.123 0.287 0.192 0.459 0.192h1.993c0.172 0 0.337-0.069 0.459-0.192s0.19-0.29 0.19-0.464-0.068-0.341-0.19-0.464c-0.122-0.123-0.287-0.192-0.459-0.192z"></path>
<path fill="#fff" style="fill: var(--color2, #fff)" d="M9.006 20.935l-1.41 1.425c-0.061 0.061-0.109 0.133-0.142 0.212s-0.050 0.165-0.050 0.251c0 0.086 0.017 0.172 0.050 0.251s0.081 0.152 0.142 0.212c0.060 0.061 0.131 0.11 0.21 0.143s0.163 0.050 0.248 0.050 0.17-0.017 0.248-0.050c0.079-0.033 0.15-0.082 0.21-0.143l1.414-1.425c0.12-0.124 0.188-0.29 0.188-0.463s-0.068-0.34-0.188-0.463c-0.060-0.061-0.132-0.11-0.211-0.143s-0.164-0.050-0.249-0.050-0.17 0.017-0.249 0.050c-0.079 0.033-0.151 0.082-0.211 0.143z"></path>
<path fill="#fff" style="fill: var(--color2, #fff)" d="M22.605 21.092c-0.122-0.123-0.288-0.192-0.46-0.192s-0.338 0.069-0.461 0.192c-0.12 0.124-0.188 0.29-0.188 0.463s0.068 0.34 0.188 0.463l1.254 1.264c0.060 0.061 0.131 0.11 0.21 0.143s0.163 0.050 0.248 0.050 0.17-0.017 0.248-0.050c0.079-0.033 0.15-0.082 0.21-0.143s0.109-0.133 0.142-0.212c0.033-0.080 0.050-0.165 0.050-0.251s-0.017-0.172-0.050-0.251c-0.033-0.080-0.081-0.152-0.142-0.212l-1.25-1.264z"></path>
<path fill="#fff" style="fill: var(--color2, #fff)" d="M27.085 14.525h-2.236c-0.172 0-0.337 0.069-0.459 0.192s-0.19 0.29-0.19 0.464 0.068 0.341 0.19 0.464c0.122 0.123 0.287 0.192 0.459 0.192h2.236c0.172 0 0.337-0.069 0.459-0.192s0.19-0.29 0.19-0.464-0.068-0.341-0.19-0.464c-0.122-0.123-0.287-0.192-0.459-0.192z"></path>
<path fill="#fff" style="fill: var(--color2, #fff)" d="M22.761 9.204l1.475-1.491c0.12-0.124 0.188-0.29 0.188-0.463s-0.068-0.34-0.188-0.463c-0.123-0.122-0.288-0.19-0.461-0.19s-0.338 0.068-0.46 0.19l-1.47 1.491c-0.12 0.124-0.188 0.29-0.188 0.463s0.067 0.34 0.188 0.463c0.122 0.122 0.287 0.19 0.458 0.19s0.336-0.068 0.458-0.19z"></path>
<path fill="#fff" style="fill: var(--color2, #fff)" d="M17.364 26.286h-2.724c-0.038-0.001-0.076 0.008-0.11 0.025s-0.064 0.043-0.086 0.074c-0.023 0.031-0.037 0.068-0.043 0.106s-0.002 0.077 0.011 0.114c0.118 0.331 0.335 0.616 0.619 0.818s0.624 0.31 0.972 0.31c0.347 0 0.686-0.108 0.97-0.31s0.499-0.487 0.617-0.818c0.012-0.036 0.016-0.075 0.011-0.113s-0.020-0.074-0.042-0.105c-0.022-0.031-0.051-0.057-0.085-0.074s-0.071-0.027-0.109-0.027z"></path>
<path fill="#fff" style="fill: var(--color2, #fff)" d="M17.745 24.31h-3.632c-0.156 0-0.306 0.063-0.416 0.174s-0.172 0.263-0.172 0.42v0.127c0.001 0.157 0.064 0.307 0.174 0.418s0.259 0.173 0.414 0.173h3.632c0.155 0 0.304-0.062 0.414-0.173s0.173-0.261 0.174-0.418v-0.127c0-0.158-0.062-0.309-0.172-0.42s-0.26-0.174-0.416-0.174z"></path>
</symbol>
<symbol id="icon-Property-1Cup-off" viewBox="0 0 31 32">
<path fill="#b3a0ff" style="fill: var(--color1, #b3a0ff)" d="M31.304 15.652c0 8.644-7.008 15.652-15.652 15.652s-15.652-7.008-15.652-15.652c0-8.644 7.008-15.652 15.652-15.652s15.652 7.008 15.652 15.652z"></path>
<path fill="#fff" style="fill: var(--color2, #fff)" d="M8.479 12.426c-0.318-0.166-0.601-0.39-0.835-0.662-0.233-0.275-0.388-0.607-0.449-0.962-0.024-0.127-0.036-0.256-0.036-0.385-0.003-0.347 0.076-0.69 0.229-1.002 0.135-0.286 0.37-0.513 0.66-0.639 0.152-0.065 0.315-0.098 0.48-0.098 0.401 0.010 0.784 0.17 1.073 0.447 0-0.331-0.027-0.666-0.027-0.993v-0.103c-0.325-0.16-0.683-0.246-1.046-0.25-0.285 0.001-0.567 0.057-0.831 0.165-0.482 0.211-0.875 0.585-1.109 1.055-0.219 0.439-0.331 0.923-0.328 1.413 0 0.181 0.017 0.363 0.049 0.541 0.082 0.505 0.3 0.98 0.629 1.373 0.47 0.529 1.066 0.934 1.733 1.176 0.637 0.235 1.288 0.434 1.948 0.595 0.3 0.080 0.591 0.187 0.871 0.322-0.283-0.394-0.552-0.805-0.804-1.23-0.763-0.17-1.504-0.427-2.209-0.765z"></path>
<path fill="#fff" style="fill: var(--color2, #fff)" d="M25.425 9.004c-0.234-0.471-0.626-0.844-1.109-1.055-0.263-0.109-0.545-0.165-0.831-0.165-0.363 0.004-0.72 0.090-1.046 0.251 0 0.036 0 0.067 0 0.103 0 0.326-0 0.662-0.031 0.997 0.288-0.279 0.671-0.439 1.073-0.447 0.167 0 0.331 0.034 0.485 0.098 0.288 0.128 0.521 0.355 0.655 0.639 0.153 0.312 0.232 0.655 0.229 1.002-0.001 0.129-0.012 0.257-0.031 0.385-0.061 0.355-0.216 0.687-0.449 0.962-0.377 0.408-0.851 0.715-1.378 0.894-0.549 0.206-1.109 0.379-1.679 0.519-0.251 0.425-0.521 0.836-0.799 1.23 0.278-0.135 0.568-0.242 0.866-0.322 0.894-0.196 1.762-0.496 2.586-0.894 0.42-0.226 0.793-0.529 1.1-0.894 0.325-0.396 0.541-0.869 0.629-1.373 0.031-0.179 0.046-0.36 0.045-0.541 0.003-0.48-0.104-0.954-0.314-1.386z"></path>
<path fill="#fff" style="fill: var(--color2, #fff)" d="M19.921 20.592h-0.898c-0.301 0.001-0.6-0.059-0.877-0.176s-0.529-0.288-0.739-0.504c-0.411-0.418-0.642-0.98-0.642-1.565 0.001-0.321 0.071-0.639 0.207-0.93 0.482-0.989 1.066-1.926 1.742-2.795 0.623-0.805 1.187-1.654 1.688-2.54 0.273-0.564 0.451-1.168 0.53-1.789 0.106-0.718 0.157-1.443 0.153-2.169 0-0.792-0.049-1.552-0.108-2.173-0.014-0.103-0.065-0.198-0.142-0.268s-0.176-0.111-0.28-0.117h-9.113c-0.104 0.005-0.203 0.046-0.28 0.117s-0.127 0.165-0.142 0.268c-0.058 0.622-0.103 1.382-0.103 2.173-0.006 0.726 0.044 1.451 0.148 2.169 0.078 0.621 0.257 1.225 0.53 1.789 0.502 0.886 1.068 1.735 1.692 2.54 0.674 0.87 1.258 1.807 1.742 2.795 0.131 0.29 0.2 0.603 0.202 0.921-0.001 0.582-0.23 1.14-0.637 1.556-0.207 0.216-0.457 0.387-0.734 0.503s-0.574 0.175-0.874 0.172h-0.799c-0.245 0.002-0.484 0.077-0.685 0.216s-0.357 0.334-0.446 0.562h9.993c-0.092-0.223-0.248-0.413-0.449-0.548s-0.436-0.207-0.678-0.208z"></path>
<path fill="#fff" style="fill: var(--color2, #fff)" d="M21.905 22.712h-11.802c-0.441 0-0.799 0.356-0.799 0.796v1.436c0 0.44 0.358 0.796 0.799 0.796h11.802c0.441 0 0.799-0.356 0.799-0.796v-1.436c0-0.44-0.358-0.796-0.799-0.796z"></path>
</symbol>
<symbol id="icon-Property-1List-Off" viewBox="0 0 32 32">
<path fill="#b3a0ff" style="fill: var(--color1, #b3a0ff)" d="M32 16c0 8.837-7.163 16-16 16s-16-7.163-16-16c0-8.837 7.163-16 16-16s16 7.163 16 16z"></path>
<path fill="#fff" style="fill: var(--color2, #fff)" d="M21.032 11.154c-0.6 0-1.175-0.232-1.599-0.645s-0.663-0.973-0.663-1.557v-3.974h-9.502c-0.384-0-0.752 0.147-1.024 0.41-0.27 0.265-0.422 0.624-0.421 0.997v18.523c-0.001 0.184 0.036 0.365 0.109 0.535s0.179 0.323 0.313 0.452c0.134 0.132 0.293 0.237 0.469 0.308s0.365 0.108 0.555 0.107h14.175c0.191 0 0.379-0.036 0.555-0.107s0.335-0.176 0.469-0.308c0.134-0.129 0.24-0.283 0.313-0.452s0.109-0.351 0.109-0.535v-13.755h-3.857zM10.255 7.7h3.062c0.212 0 0.416 0.082 0.566 0.228s0.234 0.344 0.234 0.551-0.084 0.405-0.234 0.551c-0.15 0.146-0.354 0.228-0.566 0.228h-3.062c-0.212 0-0.416-0.082-0.566-0.228s-0.234-0.344-0.234-0.551 0.084-0.405 0.234-0.551c0.15-0.146 0.354-0.228 0.566-0.228zM10.255 12.188h6.119c0.212 0 0.416 0.082 0.566 0.228s0.234 0.344 0.234 0.551-0.084 0.405-0.234 0.551c-0.15 0.146-0.354 0.228-0.566 0.228h-6.119c-0.212 0-0.416-0.082-0.566-0.228s-0.234-0.344-0.234-0.551 0.084-0.405 0.234-0.551c0.15-0.146 0.354-0.228 0.566-0.228zM10.17 17.039h12.356c0.212 0 0.416 0.082 0.566 0.228s0.234 0.344 0.234 0.551-0.084 0.405-0.234 0.551c-0.15 0.146-0.354 0.228-0.566 0.228h-12.377c-0.212 0-0.416-0.082-0.566-0.228s-0.234-0.344-0.234-0.551c-0.002-0.104 0.017-0.207 0.056-0.303s0.098-0.184 0.172-0.258 0.164-0.133 0.262-0.173c0.098-0.040 0.204-0.061 0.31-0.061l0.021 0.016zM22.627 23.257h-12.372c-0.212 0-0.416-0.082-0.566-0.228s-0.234-0.344-0.234-0.551 0.084-0.405 0.234-0.551c0.15-0.146 0.354-0.228 0.566-0.228h12.393c0.212 0 0.416 0.082 0.566 0.228s0.234 0.344 0.234 0.551c0 0.104-0.021 0.207-0.063 0.303s-0.102 0.183-0.179 0.255-0.167 0.13-0.267 0.167c-0.1 0.038-0.206 0.056-0.313 0.053z"></path>
<path fill="#fff" style="fill: var(--color2, #fff)" d="M21.032 9.596h3.857l-4.519-4.27v3.636c0.001 0.084 0.018 0.167 0.052 0.244s0.082 0.147 0.144 0.206c0.061 0.059 0.134 0.105 0.214 0.137s0.165 0.047 0.252 0.047z"></path>
</symbol>
<symbol id="icon-Property-1notification-Off" viewBox="0 0 32 32">
<path fill="#b3a0ff" style="fill: var(--color1, #b3a0ff)" d="M32 16c0 8.837-7.163 16-16 16s-16-7.163-16-16c0-8.837 7.163-16 16-16s16 7.163 16 16z"></path>
<path fill="#fff" style="fill: var(--color2, #fff)" d="M8.099 22.024c0.206 0.304 0.504 0.529 0.847 0.64 0.994 0.303 2.014 0.512 3.046 0.623 1.327 0.155 2.662 0.231 3.998 0.228 1.337 0.004 2.673-0.072 4.001-0.228 1.032-0.111 2.051-0.32 3.046-0.623 0.343-0.111 0.641-0.336 0.847-0.64 0.192-0.287 0.295-0.627 0.294-0.976-0-0.229-0.045-0.455-0.132-0.666s-0.214-0.401-0.375-0.56c-0.526-0.547-0.908-1.224-1.108-1.966-0.185-0.637-0.278-1.298-0.277-1.963 0-0.284 0.014-0.509 0.028-0.694 0.022-0.247 0.039-0.501 0.039-0.76 0.002-0.274-0.019-0.548-0.061-0.819-0.241-1.523-1.001-2.909-2.143-3.912-0.71-0.629-1.547-1.087-2.45-1.343 0.253-0.363 0.388-0.797 0.388-1.243 0-0.569-0.22-1.114-0.611-1.517s-0.923-0.628-1.476-0.628c-0.553 0.001-1.084 0.227-1.474 0.629s-0.61 0.947-0.61 1.516c-0.001 0.446 0.135 0.881 0.388 1.243-0.904 0.255-1.741 0.714-2.45 1.343-1.142 1.002-1.902 2.388-2.143 3.912-0.042 0.271-0.062 0.545-0.061 0.819 0 0.259 0.017 0.512 0.039 0.76 0 0.185 0.028 0.421 0.028 0.694 0.004 0.664-0.084 1.325-0.263 1.963-0.204 0.743-0.59 1.42-1.121 1.966-0.16 0.159-0.287 0.349-0.374 0.56s-0.132 0.437-0.132 0.666c-0.006 0.347 0.090 0.687 0.277 0.976zM15.298 7.837c-0.181-0.191-0.28-0.448-0.277-0.714-0.003-0.265 0.097-0.521 0.277-0.711 0.185-0.185 0.434-0.287 0.692-0.284 0.259-0.003 0.509 0.099 0.695 0.284 0.18 0.19 0.28 0.446 0.277 0.711 0.003 0.266-0.096 0.523-0.277 0.714-0.186 0.185-0.436 0.288-0.695 0.284-0.129 0.003-0.258-0.021-0.378-0.070s-0.23-0.122-0.323-0.214h0.008z"></path>
<path fill="#fff" style="fill: var(--color2, #fff)" d="M17.084 23.998c-0.072-0.009-0.145-0.004-0.216 0.016s-0.136 0.054-0.193 0.1c-0.057 0.046-0.105 0.103-0.141 0.168s-0.059 0.137-0.068 0.211c-0.022 0.187-0.11 0.359-0.246 0.484-0.139 0.127-0.318 0.197-0.504 0.196-0.184 0-0.361-0.068-0.498-0.193-0.137-0.124-0.226-0.295-0.249-0.481-0.019-0.149-0.095-0.285-0.212-0.376s-0.263-0.132-0.409-0.113c-0.072 0.010-0.142 0.034-0.205 0.071s-0.119 0.087-0.163 0.146c-0.044 0.059-0.077 0.127-0.096 0.199s-0.024 0.148-0.015 0.222c0.059 0.458 0.277 0.878 0.615 1.183 0.339 0.31 0.778 0.481 1.232 0.481 0.458-0 0.899-0.174 1.24-0.486 0.338-0.309 0.555-0.734 0.609-1.195 0.017-0.149-0.024-0.3-0.114-0.418s-0.223-0.195-0.368-0.214z"></path>
</symbol>
<symbol id="icon-Property-1Star-Off" viewBox="0 0 32 32">
<path fill="#b3a0ff" style="fill: var(--color1, #b3a0ff)" d="M32 16c0 8.837-7.163 16-16 16s-16-7.163-16-16c0-8.837 7.163-16 16-16s16 7.163 16 16z"></path>
<path fill="#fff" style="fill: var(--color2, #fff)" d="M24.239 11.481l-3.634-0.927c-0.449-0.116-0.838-0.401-1.088-0.797l-1.994-3.214c-0.16-0.264-0.384-0.481-0.651-0.631s-0.568-0.227-0.874-0.224c-0.305-0.002-0.605 0.075-0.871 0.225s-0.49 0.367-0.649 0.63l-1.998 3.214c-0.247 0.396-0.634 0.682-1.083 0.797l-3.634 0.927c-0.296 0.075-0.568 0.225-0.79 0.436s-0.389 0.475-0.483 0.769-0.113 0.606-0.055 0.909c0.058 0.303 0.191 0.586 0.387 0.823l2.401 2.914c0.297 0.36 0.446 0.821 0.416 1.289l-0.252 3.787c-0.016 0.249 0.018 0.499 0.101 0.734s0.212 0.451 0.38 0.633 0.372 0.328 0.598 0.428c0.226 0.1 0.47 0.152 0.716 0.152 0.23-0 0.458-0.044 0.672-0.13l3.479-1.415c0.213-0.085 0.439-0.129 0.668-0.13 0.23 0.001 0.458 0.045 0.672 0.13l3.479 1.415c0.214 0.086 0.442 0.13 0.672 0.13 0.246-0.001 0.49-0.052 0.716-0.152s0.429-0.245 0.598-0.428c0.168-0.182 0.298-0.398 0.38-0.633s0.117-0.485 0.101-0.734l-0.252-3.787c-0.030-0.468 0.119-0.929 0.416-1.289l2.401-2.914c0.196-0.237 0.329-0.52 0.387-0.823s0.039-0.616-0.055-0.909c-0.094-0.294-0.26-0.558-0.483-0.769s-0.495-0.361-0.79-0.436z"></path>
</symbol>
</defs>
</svg>
